# xmcd
#
# Track frame offsets:
# 150
# 16233
# 36219
# 53285
# 68307
# 85014
# 107586
# 119359
# 146226
# 166760
# 183107
#
# Disc length: 2638 seconds
#
#
# Revision: 0
# Processed by: cddbd v1.5.2PL0 Copyright (c) Steve Scherf et al.
# Submitted via: FreeRIP 2.95 
#
DISCID=7a0a4c0b
DTITLE=Lesa Hudson - Not Me
DYEAR=2006
DGENRE=Country
TTITLE0=This I Know
TTITLE1=Not Me
TTITLE2=I Wanna Thank U
TTITLE3=Lukewarm Christian
TTITLE4=Hole Hearted
TTITLE5=This Is A Song
TTITLE6=What Will You Do
TTITLE7=Last Words
TTITLE8=Following God's Plan
TTITLE9=Step Out In Faith
TTITLE10=Field Of Dreams
EXTD=
EXTT0=
EXTT1=
EXTT2=
EXTT3=
EXTT4=
EXTT5=
EXTT6=
EXTT7=
EXTT8=
EXTT9=
EXTT10=
PLAYORDER=
